<svg xmlns="http://www.w3.org/2000/svg" viewBox="0 0 94 122"><path fill="#fff" d="M8.1 89.9 47.6 110l38-20.1V11.3H8.1z"/><path fill="#f2f3f2" d="M86.4 11.6 7.3 91.3l41 20.3 38.1-19.5z"/><path fill="#dcdedc" d="M5.5 37.5v54.1l1.4.7 39.5 20.1 1.2.6 1.2-.6 38.1-20.1 1.4-.7V8.7H5.5v28.8zm2.6 52.6V11.3h77.6v78.8l-38.1 20.1L8.1 90.1z"/><path fill="#ff492c" d="M46.9 12.6c.4 0 .8 0 1.2.1L46.9 15c-1.8-.1-3.4 1.3-3.5 3.1-.1 1.8 1.3 3.4 3.1 3.5h.4c.8 0 1.6-.3 2.2-.8l1.3 2.2c-1 .7-2.2 1.1-3.5 1.1-3.2.1-5.9-2.3-6-5.5-.1-3.2 2.3-5.9 5.5-6h.5zm4.1 4.9 1.5 2.5-1.5 2.4-1.4-2.4h-2.9l1.5-2.5H51zm-2.4-.9c0-.4.1-.8.3-1.1.2-.3.6-.6.9-.8l.2-.1c.4-.2.5-.3.5-.5s-.3-.4-.5-.4c-.4 0-.7.2-.9.6l-.5-.5c.1-.2.3-.4.5-.6.3-.2.6-.2.9-.2.3 0 .7.1.9.3.2.2.4.5.4.8 0 .5-.3.9-.9 1.1l-.3.2c-.3.2-.5.3-.6.6h1.8v.7l-2.7-.1zm-1.7 12.5 9.5-5.4v-15H37.3v14.9l9.6 5.5z"/><path fill="#ffd200" d="M90.2 64.5H3.6l-3.2 7 3.2 7h86.6l3.1-7z"/><path fill="#252530" d="M32.99 49.5q.07 0 .13.05.05.06.05.13v1.47q0 .07-.05.13-.06.05-.13.05H30.3q-.07 0-.07.08v8.41q0 .08-.05.13-.06.05-.13.05h-1.76q-.07 0-.12-.05-.06-.05-.06-.13v-8.41q0-.08-.07-.08h-2.61q-.07 0-.13-.05-.05-.06-.05-.13v-1.47q0-.07.05-.13.06-.05.13-.05h7.56Zm3.54 10.62q-1.26 0-2.16-.66-.9-.66-1.23-1.8-.21-.7-.21-1.53 0-.88.21-1.59.35-1.11 1.24-1.74.91-.63 2.16-.63 1.24 0 2.11.62.87.63 1.22 1.74.25.75.25 1.57 0 .81-.22 1.52-.32 1.17-1.22 1.83-.89.67-2.15.67Zm0-1.81q.5 0 .84-.3.35-.3.5-.83.12-.48.12-1.05 0-.63-.12-1.06-.17-.51-.51-.8-.35-.28-.84-.28-.51 0-.85.28-.34.29-.49.8-.12.35-.12 1.06 0 .68.11 1.05.14.53.5.83.35.3.86.3Zm11.89 1.81q-1.15 0-2.03-.45-.87-.45-1.36-1.27-.49-.82-.49-1.88v-6.84q0-.07.05-.13.06-.05.13-.05h1.75q.08 0 .13.05.06.06.06.13v6.86q0 .79.48 1.28.49.49 1.28.49.8 0 1.29-.49t.49-1.28v-6.86q0-.07.05-.13.05-.05.13-.05h1.75q.08 0 .13.05.05.06.05.13v6.84q0 1.06-.49 1.88-.48.82-1.36 1.27-.88.45-2.04.45Zm8.57-.02q-1 0-1.75-.28t-1.17-.79q-.41-.51-.41-1.16v-.15q0-.07.05-.13.05-.05.13-.05h1.67q.07 0 .12.05.06.06.06.13v.01q0 .34.36.57.37.23.92.23.52 0 .83-.2.31-.21.31-.5 0-.27-.26-.41-.28-.13-.89-.28-.7-.18-1.11-.35-.96-.33-1.53-.81-.57-.48-.57-1.38 0-1.11.86-1.76.86-.65 2.29-.65.96 0 1.68.3.72.31 1.12.87.4.55.4 1.26 0 .07-.06.12-.05.05-.12.05h-1.61q-.07 0-.13-.05-.05-.05-.05-.12 0-.33-.34-.56-.33-.23-.89-.23-.5 0-.81.19-.31.18-.31.49 0 .3.3.45.31.15 1.03.32l.38.09q.21.05.44.13 1.07.32 1.68.81.62.5.62 1.44 0 1.11-.88 1.73-.88.62-2.36.62Zm11.28-4.75q.09.57.06 1.27-.02.19-.2.19H63.5q-.09 0-.06.07.05.3.16.6.39.84 1.6.84.96-.01 1.51-.78.06-.09.14-.09.04 0 .1.06l1.08 1.06q.07.08.07.14 0 .03-.05.12-.5.62-1.28.95-.78.34-1.71.34-1.29 0-2.18-.58-.89-.59-1.28-1.64-.32-.75-.32-1.96 0-.83.23-1.46.34-1.06 1.2-1.69.86-.63 2.05-.63 1.5 0 2.41.87.91.87 1.1 2.32Zm-3.49-1.36q-.95 0-1.25.88-.06.2-.11.48 0 .07.08.07h2.6q.09 0 .06-.07-.08-.43-.08-.42-.13-.45-.47-.7-.34-.24-.83-.24ZM29.87 36.13q0 .08-.06.13-.05.05-.12.05h-4.93q-.07 0-.07.08v2.32q0 .08.07.08h3.23q.07 0 .13.05.05.06.05.13v1.45q0 .08-.05.13-.06.06-.13.06h-3.23q-.07 0-.07.07v2.43q0 .08.07.08h4.93q.07 0 .12.05.06.05.06.12v1.46q0 .08-.06.13-.05.05-.12.05h-6.94q-.07 0-.12-.05-.06-.05-.06-.13V34.68q0-.07.06-.13.05-.05.12-.05h6.94q.07 0 .12.05.06.06.06.13v1.45Zm4.41 1.04q.97 0 1.74.34.76.34 1.19.92.42.59.42 1.31v5.08q0 .08-.05.13t-.13.05H35.7q-.08 0-.13-.05t-.05-.13v-.49q0-.05-.03-.06-.03-.02-.06.03-.63.82-2.03.82-1.17 0-1.88-.57-.73-.57-.73-1.68 0-1.15.82-1.79.8-.64 2.3-.64h1.54q.07 0 .07-.07v-.33q0-.5-.3-.78-.3-.27-.9-.27-.46 0-.77.16-.31.17-.4.47-.04.16-.2.15l-1.81-.24q-.18-.03-.17-.14.07-.63.51-1.14.44-.51 1.17-.79.72-.29 1.63-.29Zm-.31 6.38q.65 0 1.1-.35.45-.35.45-.89v-.54q0-.07-.07-.07h-1.08q-.68 0-1.06.26-.38.25-.38.72 0 .4.28.63.28.24.76.24Zm8.23 1.55q-1.01 0-1.76-.28t-1.16-.79q-.42-.51-.42-1.16v-.15q0-.07.06-.13.05-.05.12-.05h1.67q.08 0 .13.05.05.06.05.13v.01q0 .34.37.57.36.23.92.23.51 0 .82-.2.32-.21.32-.5 0-.27-.27-.41-.27-.13-.89-.28-.7-.18-1.11-.35-.96-.33-1.53-.81-.57-.48-.57-1.38 0-1.11.87-1.76.86-.65 2.29-.65.96 0 1.68.3.71.31 1.11.87.4.55.4 1.26 0 .07-.05.12-.05.05-.13.05h-1.6q-.08 0-.13-.05t-.05-.12q0-.33-.34-.56-.34-.23-.89-.23-.5 0-.82.19-.31.18-.31.49 0 .3.31.45.3.15 1.03.32.16.04.37.09.21.05.45.13 1.07.32 1.68.81.61.5.61 1.44 0 1.11-.87 1.73-.88.62-2.36.62Zm5.59-8.68q-.51 0-.85-.34-.33-.33-.33-.84 0-.53.33-.86.33-.33.85-.33.53 0 .85.33.34.33.34.86 0 .51-.34.84-.34.34-.85.34Zm-.9 8.58q-.07 0-.13-.05-.05-.05-.05-.13v-7.36q0-.08.05-.13.06-.05.13-.05h1.75q.08 0 .13.05t.05.13v7.36q0 .08-.05.13t-.13.05h-1.75Zm10.41-4.65q.09.57.06 1.27-.01.19-.19.19h-4.64q-.09 0-.06.07.05.3.17.6.39.84 1.58.84.96-.01 1.52-.78.06-.09.14-.09.04 0 .1.06l1.08 1.06q.08.08.08.14 0 .03-.07.12-.49.62-1.27.95-.78.34-1.71.34-1.29 0-2.18-.58-.89-.59-1.29-1.64-.31-.75-.31-1.96 0-.83.23-1.46.34-1.06 1.2-1.69.87-.63 2.05-.63 1.5 0 2.41.87.91.87 1.1 2.32Zm-3.5-1.36q-.94 0-1.24.88-.06.2-.1.48 0 .07.07.07h2.6q.08 0 .05-.07-.07-.43-.07-.42-.14-.45-.47-.7-.34-.24-.84-.24Zm7.84 6.11q-1.01 0-1.76-.28t-1.16-.79q-.41-.51-.41-1.16v-.15q0-.07.05-.13.05-.05.13-.05h1.66q.08 0 .13.05.05.06.05.13v.01q0 .34.37.57.37.23.92.23.51 0 .83-.2.31-.21.31-.5 0-.27-.27-.41-.27-.13-.88-.28-.71-.18-1.11-.35-.96-.33-1.53-.81-.57-.48-.57-1.38 0-1.11.86-1.76.86-.65 2.29-.65.96 0 1.68.3.72.31 1.11.87.4.55.4 1.26 0 .07-.05.12-.05.05-.13.05h-1.6q-.08 0-.13-.05t-.05-.12q0-.33-.34-.56-.34-.23-.89-.23-.5 0-.81.19-.32.18-.32.49 0 .3.31.45.31.15 1.03.32.16.04.37.09.21.05.45.13 1.07.32 1.68.81.62.5.62 1.44 0 1.11-.88 1.73-.88.62-2.36.62Zm8.86-6.29q0 .07-.05.12-.05.06-.13.06h-1.44q-.07 0-.07.07v3.18q0 .49.2.74.2.24.65.24h.5q.07 0 .12.05.06.05.06.13v1.42q0 .17-.18.19-.63.03-.9.03-1.25 0-1.86-.41-.62-.41-.63-1.55v-4.02q0-.07-.08-.07h-.85q-.08 0-.13-.06-.05-.05-.05-.12v-1.34q0-.07.05-.13.05-.05.13-.05h.85q.08 0 .08-.08v-1.78q0-.07.05-.13.05-.05.13-.05h1.68q.07 0 .12.05.06.06.06.13v1.78q0 .08.07.08h1.44q.08 0 .13.05.05.06.05.13v1.34Z"/><path fill="#242530" d="M31.2 75.4q-.11 0-.14-.1l-1.82-6.77-.01-.04q0-.09.11-.09h.98q.11 0 .14.1l1.14 4.56q.01.03.03.03.02 0 .03-.03l1.09-4.56q.03-.1.13-.1h.96q.11 0 .14.1l1.16 4.57q.01.03.03.03.02 0 .03-.03l1.12-4.57q.03-.1.14-.1h.93q.14 0 .11.13l-1.73 6.77q-.03.1-.14.1h-.93q-.11 0-.14-.1l-1.17-4.77q-.01-.03-.03-.04-.02 0-.03.04l-1.12 4.77q-.03.1-.13.1h-.88Zm7.41 0q-.05 0-.09-.04-.03-.03-.03-.08v-6.76q0-.05.03-.08.04-.04.09-.04h.92q.05 0 .08.04.04.03.04.08v6.76q0 .05-.04.08-.03.04-.08.04h-.92Zm6.57-6.88q0-.05.03-.08.04-.04.09-.04h.92q.05 0 .08.04.04.03.04.08v6.76q0 .05-.04.08-.03.04-.08.04h-.89q-.1 0-.14-.08l-2.88-4.72q-.02-.03-.04-.03-.02.01-.02.05l.02 4.66q0 .05-.04.08-.03.04-.08.04h-.92q-.05 0-.09-.04-.03-.03-.03-.08v-6.76q0-.05.03-.08.04-.04.09-.04h.89q.1 0 .14.08l2.87 4.72q.02.03.04.02.02 0 .02-.04l-.01-4.66Zm7.22-.12q.05 0 .08.04.04.03.04.08v.77q0 .05-.04.08-.03.04-.08.04h-1.84q-.05 0-.05.05v5.82q0 .05-.03.08-.04.04-.09.04h-.92q-.05 0-.08-.04-.04-.03-.04-.08v-5.82q0-.05-.05-.05h-1.77q-.05 0-.09-.04-.03-.03-.03-.08v-.77q0-.05.03-.08.04-.04.09-.04h4.87Zm5.93.88q0 .05-.04.08-.03.04-.08.04H54.8q-.05 0-.05.05v1.87q0 .05.05.05h2.29q.05 0 .09.03.03.04.03.09v.76q0 .05-.03.09-.04.03-.09.03H54.8q-.05 0-.05.05v1.93q0 .05.05.05h3.41q.05 0 .08.04.04.03.04.08v.76q0 .05-.04.08-.03.04-.08.04h-4.5q-.05 0-.09-.04-.03-.03-.03-.08v-6.76q0-.05.03-.08.04-.04.09-.04h4.5q.05 0 .08.04.04.03.04.08v.76Zm5.11 6.12q-.1 0-.14-.09l-1.32-2.88q-.02-.04-.06-.04h-1.2q-.05 0-.05.05v2.84q0 .05-.04.08-.03.04-.08.04h-.92q-.05 0-.09-.04-.03-.03-.03-.08v-6.76q0-.05.03-.08.04-.04.09-.04h2.75q.61 0 1.08.25.47.26.73.72.26.47.26 1.07 0 .69-.36 1.17-.35.49-.98.68-.02 0-.03.02-.01.02 0 .04l1.41 2.91q.02.04.02.06 0 .08-.11.08h-.96Zm-2.72-6q-.05 0-.05.05v1.99q0 .05.05.05h1.5q.48 0 .78-.29.29-.28.29-.75t-.29-.76q-.3-.29-.78-.29h-1.5Z"/><path fill="#252530" d="M33.77 93.46q-.03.03-.02.06.02.03.06.03h3.93q.07 0 .12.05.06.05.06.12v1.41q0 .07-.06.12-.05.05-.12.05h-6.52q-.08 0-.13-.05t-.05-.12v-1.34q0-.13.09-.22.71-.69 1.45-1.51.74-.82.93-1.02.4-.48.82-.92 1.32-1.46 1.32-2.17 0-.51-.36-.84-.36-.32-.94-.32t-.94.32q-.37.33-.37.87v.36q0 .07-.05.12-.05.05-.12.05h-1.71q-.07 0-.12-.05-.06-.05-.06-.12v-.68q.05-.78.5-1.39.45-.6 1.19-.92.75-.32 1.68-.32 1.03 0 1.79.39.76.38 1.17 1.03.42.66.42 1.45 0 .61-.31 1.25-.3.64-.91 1.38-.45.56-.97 1.12-.52.55-1.55 1.59l-.22.22Zm8.86 2q-1.6 0-2.52-.89-.93-.89-.93-2.43v-3.83q0-1.51.93-2.39.92-.89 2.52-.89 1.59 0 2.53.89.93.88.93 2.39v3.83q0 1.54-.93 2.43-.94.89-2.53.89Zm0-1.75q.65 0 1.03-.4.39-.4.39-1.07v-3.99q0-.66-.39-1.06-.38-.4-1.03-.4-.64 0-1.02.4-.39.4-.39 1.06v3.99q0 .67.39 1.07.38.4 1.02.4Zm7.52-.25q-.03.03-.01.06.01.03.06.03h3.93q.07 0 .12.05.05.05.05.12v1.41q0 .07-.05.12-.05.05-.12.05H47.6q-.07 0-.12-.05-.05-.05-.05-.12v-1.34q0-.13.08-.22.72-.69 1.45-1.51.74-.82.93-1.02.41-.48.83-.92 1.32-1.46 1.32-2.17 0-.51-.36-.84-.37-.32-.95-.32t-.94.32q-.36.33-.36.87v.36q0 .07-.05.12-.05.05-.13.05h-1.71q-.07 0-.12-.05-.05-.05-.05-.12v-.68q.04-.78.49-1.39.45-.6 1.2-.92.75-.32 1.67-.32 1.03 0 1.79.39.77.38 1.18 1.03.41.66.41 1.45 0 .61-.3 1.25-.31.64-.92 1.38-.45.56-.97 1.12-.52.55-1.55 1.59l-.22.22Zm8.12 0q-.03.03-.01.06.01.03.06.03h3.93q.07 0 .12.05.05.05.05.12v1.41q0 .07-.05.12-.05.05-.12.05h-6.53q-.07 0-.12-.05-.05-.05-.05-.12v-1.34q0-.13.08-.22.72-.69 1.45-1.51.74-.82.93-1.02.41-.48.83-.92 1.32-1.46 1.32-2.17 0-.51-.36-.84-.37-.32-.95-.32t-.94.32q-.36.33-.36.87v.36q0 .07-.05.12-.05.05-.13.05h-1.71q-.07 0-.12-.05-.05-.05-.05-.12v-.68q.04-.78.49-1.39.45-.6 1.2-.92.75-.32 1.67-.32 1.03 0 1.79.39.77.38 1.18 1.03.41.66.41 1.45 0 .61-.3 1.25-.31.64-.92 1.38-.45.56-.97 1.12-.52.55-1.55 1.59l-.22.22Z"/></svg>